<svg width="277" height="285" viewBox="0 0 277 285" fill="none" xmlns="http://www.w3.org/2000/svg">
<mask id="mask0_27_111" style="mask-type:alpha" maskUnits="userSpaceOnUse" x="0" y="0" width="277" height="285">
<ellipse cx="138.5" cy="142.5" rx="138.5" ry="142.5" fill="#D9D9D9"/>
</mask>
<g mask="url(#mask0_27_111)">
<path d="M243.713 240.137C237.89 246.34 231.508 252.009 224.654 257.089C220.527 260.148 216.236 262.99 211.783 265.585C211.52 265.747 211.249 265.902 210.97 266.057C190.084 278.115 165.898 285 140.109 285C117.914 285 96.8953 279.896 78.1539 270.789C73.6776 268.613 69.333 266.212 65.1356 263.594C62.758 262.115 60.4192 260.566 58.1346 258.948C62.3708 261.929 78.2158 258.197 82.8315 257.624C109.093 254.363 134.223 243.722 160.09 237.659C187.45 231.238 216.716 232.718 243.713 240.137Z" fill="#8A3FFC"/>
<path d="M194.157 68.165C192.787 69.1718 191.369 70.1244 189.921 71.0227C191.307 70.0392 192.725 69.0866 194.157 68.165Z" fill="#8A3FFC"/>
<path d="M277.1 182.023C274.11 192.168 270.044 201.848 265.026 210.925C261.928 216.539 258.467 221.93 254.672 227.056C256.647 224.392 248.29 213.798 246.587 211.986C242.273 207.401 237.278 204.644 231.245 203.297C214.873 199.633 197.921 198.449 181.178 198.418C164.636 198.379 148.117 199.564 131.652 201.058C115.614 202.514 98.3514 206.317 82.2663 205.659C68.7601 205.109 54.433 202.236 41.4766 198.263C34.5996 196.148 27.862 193.57 21.3335 190.542C18.0886 189.039 3.58332 183.727 2.61527 180.28C-6.3295 148.412 -4.05265 113.709 9.11281 83.3438C11.591 100.784 18.3983 116.83 28.3963 130.368C39.161 144.935 51.7689 154.329 68.187 161.787C84.6051 169.244 102.464 174.17 120.392 177.105C146.111 181.318 174.006 183.239 200.043 181.21C212.504 180.242 225.042 179.181 237.642 179.057C240.949 179.026 277.324 181.225 277.092 182.023H277.1Z" fill="#8A3FFC"/>
<path d="M230.254 202.53C228.984 202.298 227.706 202.081 226.42 201.864C227.721 202.011 228.999 202.236 230.254 202.53Z" fill="#8A3FFC"/>
<path d="M276.403 98.9105C275.806 98.8873 275.202 98.8873 274.598 98.9105C263.524 99.1971 253.65 105.129 244.465 110.728C222.757 123.956 197.34 132.173 171.946 134.302C119.958 138.662 67.6371 105.749 61.8831 51.1896C61.6585 49.0831 61.5036 46.9766 61.4184 44.8624C61.2558 40.967 61.3177 37.0561 61.612 33.1607C61.7669 31.1239 61.7669 21.1181 63.4784 20.0262C65.3603 18.8258 67.2654 17.6641 69.2015 16.5567C74.1889 13.6835 79.3622 11.1046 84.7058 8.85102C97.0348 3.6313 110.247 0.107608 124.055 -1.42578C123.931 13.002 121.639 26.9109 117.496 39.999C112.02 57.2999 118.123 74.9029 136.686 80.0994C150.223 83.8941 164.225 82.3375 177.212 77.2959C197.89 69.2727 215.88 55.7743 238.471 53.2961C241.305 52.9863 244.186 52.7927 247.09 52.7152C248.027 52.692 248.964 52.6765 249.909 52.6765C250.699 52.6765 251.481 52.6843 252.263 52.6997C254.362 55.387 256.376 58.1595 258.288 61.0017C264.267 69.8923 269.286 79.4953 273.196 89.656C274.366 92.6918 275.435 95.7818 276.41 98.9183L276.403 98.9105Z" fill="#8A3FFC"/>
<path d="M117.666 39.2168C117.038 41.2148 116.365 43.1897 115.637 45.1413C116.101 43.0735 116.783 41.0909 117.666 39.2168Z" fill="#8A3FFC"/>
</g>
</svg>
