<svg width="1145" height="285" viewBox="0 0 1145 285" fill="none" xmlns="http://www.w3.org/2000/svg">
<mask id="mask0_35_15" style="mask-type:alpha" maskUnits="userSpaceOnUse" x="322" y="0" width="278" height="285">
<ellipse cx="460.64" cy="142.5" rx="138.5" ry="142.5" fill="#D9D9D9"/>
</mask>
<g mask="url(#mask0_35_15)">
<path d="M565.853 240.137C560.029 246.34 553.648 252.009 546.794 257.089C542.667 260.148 538.376 262.99 533.923 265.585C533.66 265.747 533.389 265.902 533.11 266.057C512.223 278.115 488.038 285 462.249 285C440.053 285 419.035 279.896 400.294 270.789C395.817 268.613 391.473 266.212 387.275 263.594C384.898 262.115 382.559 260.566 380.274 258.948C384.511 261.929 400.356 258.197 404.971 257.624C431.233 254.363 456.363 243.722 482.229 237.659C509.59 231.238 538.856 232.718 565.853 240.137Z" fill="#8A3FFC"/>
<path d="M516.297 68.165C514.926 69.1718 513.509 70.1244 512.061 71.0227C513.447 70.0392 514.865 69.0866 516.297 68.165Z" fill="#8A3FFC"/>
<path d="M599.239 182.023C596.25 192.168 592.184 201.848 587.166 210.925C584.068 216.539 580.606 221.93 576.812 227.056C578.786 224.392 570.43 213.798 568.727 211.986C564.413 207.401 559.418 204.644 553.385 203.297C537.013 199.633 520.061 198.449 503.317 198.418C486.775 198.379 470.257 199.564 453.792 201.058C437.753 202.514 420.491 206.317 404.406 205.659C390.9 205.109 376.573 202.236 363.616 198.263C356.739 196.148 350.002 193.57 343.473 190.542C340.228 189.039 325.723 183.726 324.755 180.28C315.81 148.412 318.087 113.709 331.253 83.3438C333.731 100.784 340.538 116.83 350.536 130.368C361.301 144.935 373.909 154.329 390.327 161.787C406.745 169.244 424.603 174.17 442.532 177.105C468.251 181.318 496.146 183.239 522.183 181.21C534.643 180.242 547.182 179.181 559.782 179.057C563.089 179.026 599.464 181.225 599.232 182.023H599.239Z" fill="#8A3FFC"/>
<path d="M552.394 202.53C551.124 202.298 549.846 202.081 548.56 201.864C549.861 202.011 551.139 202.236 552.394 202.53Z" fill="#8A3FFC"/>
<path d="M598.542 98.9105C597.946 98.8873 597.342 98.8873 596.738 98.9105C585.664 99.1971 575.789 105.129 566.605 110.728C544.897 123.956 519.48 132.173 494.086 134.302C442.098 138.662 389.777 105.749 384.023 51.1896C383.798 49.0831 383.643 46.9766 383.558 44.8624C383.396 40.967 383.458 37.0561 383.752 33.1607C383.907 31.1239 383.907 21.1181 385.618 20.0262C387.5 18.8258 389.405 17.6641 391.341 16.5567C396.329 13.6835 401.502 11.1046 406.846 8.85102C419.175 3.6313 432.387 0.107608 446.195 -1.42578C446.071 13.002 443.779 26.9109 439.635 39.999C434.16 57.2999 440.263 74.9029 458.826 80.0994C472.363 83.8941 486.365 82.3375 499.352 77.2959C520.03 69.2727 538.02 55.7743 560.61 53.2961C563.445 52.9863 566.326 52.7927 569.23 52.7152C570.167 52.692 571.104 52.6765 572.049 52.6765C572.839 52.6765 573.621 52.6843 574.403 52.6997C576.502 55.387 578.515 58.1595 580.428 61.0017C586.407 69.8923 591.425 79.4953 595.336 89.656C596.506 92.6918 597.574 95.7818 598.55 98.9183L598.542 98.9105Z" fill="#8A3FFC"/>
<path d="M439.806 39.2168C439.178 41.2148 438.504 43.1897 437.776 45.1413C438.241 43.0735 438.923 41.0909 439.806 39.2168Z" fill="#8A3FFC"/>
</g>
<path d="M764.774 3.5C782.796 3.50001 799.872 6.66714 815.983 13.0137H815.982C832.323 19.1172 846.728 28.1525 859.179 40.1123C871.894 52.096 881.783 66.6328 888.853 83.6875L889.529 85.2998C896.415 102.025 899.832 120.869 899.832 141.791C899.832 163.141 896.193 182.394 888.863 199.507C881.797 216.563 872.034 231.22 859.566 243.444L859.548 243.462C847.092 255.43 832.679 264.588 816.33 270.933L816.329 270.932C800.218 277.277 783.026 280.441 764.774 280.441C746.516 280.441 729.204 277.276 712.858 270.933L712.846 270.928C696.737 264.582 682.449 255.424 669.999 243.462L669.982 243.444C657.519 231.226 647.64 216.579 640.335 199.535L640.323 199.508C633.234 182.395 629.715 163.142 629.715 141.791C629.715 120.205 633.233 100.832 640.323 83.7158L640.329 83.7021L640.335 83.6875C647.641 66.6394 657.526 52.1054 669.999 40.1211L670.008 40.1123L670.017 40.1045C682.707 28.1466 697.118 19.1073 713.236 13.002C729.573 6.6648 746.758 3.5 764.774 3.5ZM66.5871 7.81055L67.2824 9.17676L139.849 151.794L139.875 151.846L139.9 151.899L159.174 194.626L178.449 151.899L178.47 151.855L178.491 151.812L249.62 9.19531L250.311 7.81055H257.828L258.253 9.78516L315.013 273.824L315.663 276.85H271.034L270.609 274.877L244.025 151.658L244.023 151.648L237.866 122.55L226.529 152.029L226.48 152.159L226.415 152.283L162.471 275.501L161.772 276.85H156.573L155.875 275.496L92.2902 152.278L92.256 152.211L92.2258 152.143L78.881 121.973L72.8947 151.616L72.8957 151.617L48.467 274.836L48.0685 276.85H3.06952L3.69159 273.843L58.2951 9.80469L58.7082 7.81055H66.5871ZM764.774 45.1416C748.653 45.1416 733.99 48.8753 720.734 56.3174L720.727 56.3213L720.721 56.3252C707.766 63.4968 697.31 74.2702 689.37 88.749L689.366 88.7559L689.362 88.7637C681.481 102.904 677.465 120.657 677.465 142.15C677.465 163.378 681.59 181.126 689.706 195.51C697.881 209.758 708.584 220.557 721.812 227.983C735.085 235.435 749.392 239.159 764.774 239.159C780.648 239.159 795.192 235.429 808.454 227.983C821.675 220.561 832.251 209.771 840.185 195.537C848.072 181.147 852.082 163.389 852.082 142.15C852.082 120.657 848.066 102.904 840.185 88.7637L840.181 88.7559L840.177 88.749C832.243 74.2815 821.676 63.5088 808.484 56.334L808.46 56.3213L808.438 56.3086C795.43 48.8758 780.895 45.1416 764.774 45.1416ZM983.578 276.85H938.344V7.45117H946.99L947.736 8.2832L1098.23 176.198L1097.13 153.047L1097.13 152.987V7.81055H1142.36V276.85H1133.36L1132.62 276.025L982.757 110.134L983.577 131.998L983.578 132.045V276.85Z" fill="#8A3FFC" stroke="#8A3FFC" stroke-width="5"/>
</svg>
